<?xml version="1.0" encoding="utf-8" standalone="no"?>
<!DOCTYPE svg PUBLIC "-//W3C//DTD SVG 1.1//EN"
  "http://www.w3.org/Graphics/SVG/1.1/DTD/svg11.dtd">
<svg xmlns:xlink="http://www.w3.org/1999/xlink" width="568.844687pt" height="423.43625pt" viewBox="0 0 568.844687 423.43625" xmlns="http://www.w3.org/2000/svg" version="1.1">
 <metadata>
  <rdf:RDF xmlns:dc="http://purl.org/dc/elements/1.1/" xmlns:cc="http://creativecommons.org/ns#" xmlns:rdf="http://www.w3.org/1999/02/22-rdf-syntax-ns#">
   <cc:Work>
    <dc:type rdf:resource="http://purl.org/dc/dcmitype/StillImage"/>
    <dc:date>2024-03-21T21:20:42.768611</dc:date>
    <dc:format>image/svg+xml</dc:format>
    <dc:creator>
     <cc:Agent>
      <dc:title>Matplotlib v3.5.3, https://matplotlib.org/</dc:title>
     </cc:Agent>
    </dc:creator>
   </cc:Work>
  </rdf:RDF>
 </metadata>
 <defs>
  <style type="text/css">*{stroke-linejoin: round; stroke-linecap: butt}</style>
 </defs>
 <g id="figure_1">
  <g id="patch_1">
   <path d="M 0 423.43625 
L 568.844687 423.43625 
L 568.844687 0 
L 0 0 
z
" style="fill: #ffffff"/>
  </g>
  <g id="axes_1">
   <g id="patch_2">
    <path d="M 35.304688 399.558125 
L 561.644687 399.558125 
L 561.644687 22.318125 
L 35.304688 22.318125 
z
" style="fill: #ffffff"/>
   </g>
   <g id="PolyCollection_1">
    <defs>
     <path id="m05fd730f6d" d="M 151.569584 -212.509257 
L 151.569584 -213.166392 
L 152.768809 -213.45677 
L 153.968035 -213.747148 
L 155.16726 -214.037526 
L 156.366485 -214.327904 
L 157.565711 -214.618282 
L 158.764936 -214.90866 
L 159.964161 -215.199037 
L 161.163387 -215.489415 
L 162.362612 -215.779793 
L 163.561837 -216.070171 
L 164.761063 -216.360549 
L 165.960288 -216.650927 
L 167.159513 -216.941305 
L 168.358739 -217.231683 
L 169.557964 -217.522061 
L 170.757189 -217.812439 
L 171.956415 -218.102817 
L 173.15564 -218.393195 
L 174.354865 -218.683573 
L 175.554091 -218.97395 
L 176.753316 -219.264328 
L 177.952541 -219.554706 
L 179.151767 -219.845084 
L 180.350992 -220.135462 
L 181.550217 -220.42584 
L 182.749443 -220.716218 
L 183.948668 -221.006596 
L 185.147893 -221.296974 
L 186.347119 -221.587352 
L 187.546344 -221.87773 
L 188.745569 -222.168108 
L 189.944795 -222.458486 
L 191.14402 -222.748864 
L 192.343245 -223.039241 
L 193.542471 -223.329619 
L 194.741696 -223.619997 
L 195.940921 -223.910375 
L 197.140147 -224.200753 
L 198.339372 -224.491131 
L 199.538597 -224.781509 
L 200.737823 -225.071887 
L 201.937048 -225.362265 
L 203.136273 -225.652643 
L 204.335499 -225.943021 
L 205.534724 -226.233399 
L 206.733949 -226.523777 
L 207.933175 -226.814154 
L 209.1324 -227.104532 
L 210.331625 -227.39491 
L 211.530851 -227.685288 
L 212.730076 -227.975666 
L 213.929301 -228.266044 
L 215.128527 -228.556422 
L 216.327752 -228.8468 
L 217.526977 -229.137178 
L 218.726203 -229.427556 
L 219.925428 -229.717934 
L 221.124653 -230.008312 
L 222.323879 -230.29869 
L 223.523104 -230.589067 
L 224.722329 -230.879445 
L 225.921555 -231.169823 
L 227.12078 -231.460201 
L 228.320005 -231.750579 
L 229.519231 -232.040957 
L 230.718456 -232.331335 
L 231.917681 -232.621713 
L 233.116907 -232.912091 
L 234.316132 -233.202469 
L 235.515357 -233.492847 
L 236.714583 -233.783225 
L 237.913808 -234.073603 
L 239.113033 -234.363981 
L 240.312259 -234.654358 
L 241.511484 -234.944736 
L 242.710709 -235.235114 
L 243.909935 -235.525492 
L 245.10916 -235.81587 
L 246.308385 -236.106248 
L 247.507611 -236.396626 
L 248.706836 -236.687004 
L 249.906061 -236.977382 
L 251.105287 -237.26776 
L 252.304512 -237.558138 
L 253.503737 -237.848516 
L 254.702963 -238.138894 
L 255.902188 -238.429271 
L 257.101413 -238.719649 
L 258.300639 -239.010027 
L 259.499864 -239.300405 
L 260.699089 -239.590783 
L 261.898315 -239.881161 
L 263.09754 -240.171539 
L 264.296765 -240.461917 
L 265.495991 -240.752295 
L 266.695216 -241.042673 
L 267.894441 -241.333051 
L 269.093667 -241.623429 
L 270.292892 -241.913807 
L 271.492117 -242.204184 
L 272.691343 -242.494562 
L 273.890568 -242.78494 
L 275.089793 -243.075318 
L 276.289019 -243.365696 
L 277.488244 -243.656074 
L 278.687469 -243.946452 
L 279.886695 -244.23683 
L 281.08592 -244.527208 
L 282.285145 -244.817586 
L 283.484371 -245.107964 
L 284.683596 -245.398342 
L 285.882821 -245.68872 
L 287.082047 -245.979097 
L 288.281272 -246.269475 
L 289.480497 -246.559853 
L 290.679723 -246.850231 
L 291.878948 -247.140609 
L 293.078173 -247.430987 
L 294.277399 -247.721365 
L 295.476624 -248.011743 
L 296.675849 -248.302121 
L 297.875075 -248.592499 
L 299.0743 -248.882877 
L 300.273526 -249.173255 
L 301.472751 -249.463633 
L 302.671976 -249.754011 
L 303.871202 -250.044388 
L 305.070427 -250.334766 
L 306.269652 -250.625144 
L 307.468878 -250.915522 
L 308.668103 -251.2059 
L 309.867328 -251.496278 
L 311.066554 -251.786656 
L 312.265779 -252.077034 
L 313.465004 -252.367412 
L 314.66423 -252.65779 
L 315.863455 -252.948168 
L 317.06268 -253.238546 
L 318.261906 -253.528924 
L 319.461131 -253.819301 
L 320.660356 -254.109679 
L 321.859582 -254.400057 
L 323.058807 -254.690435 
L 324.258032 -254.980813 
L 325.457258 -255.271191 
L 326.656483 -255.561569 
L 327.855708 -255.851947 
L 329.054934 -256.142325 
L 330.254159 -256.432703 
L 331.453384 -256.723081 
L 332.65261 -257.013459 
L 333.851835 -257.303837 
L 335.05106 -257.594214 
L 336.250286 -257.884592 
L 337.449511 -258.17497 
L 338.648736 -258.465348 
L 339.847962 -258.755726 
L 341.047187 -259.046104 
L 342.246412 -259.336482 
L 343.445638 -259.62686 
L 344.644863 -259.917238 
L 345.844088 -260.207616 
L 347.043314 -260.497994 
L 348.242539 -260.788372 
L 349.441764 -261.07875 
L 350.64099 -261.369128 
L 351.840215 -261.659505 
L 353.03944 -261.949883 
L 354.238666 -262.240261 
L 355.437891 -262.530639 
L 356.637116 -262.821017 
L 357.836342 -263.111395 
L 359.035567 -263.401773 
L 360.234792 -263.692151 
L 361.434018 -263.982529 
L 362.633243 -264.272907 
L 363.832468 -264.563285 
L 365.031694 -264.853663 
L 366.230919 -265.144041 
L 367.430144 -265.434418 
L 368.62937 -265.724796 
L 369.828595 -266.015174 
L 371.02782 -266.305552 
L 372.227046 -266.59593 
L 373.426271 -266.886308 
L 374.625496 -267.176686 
L 374.625496 -267.077164 
L 374.625496 -267.077164 
L 373.426271 -266.217651 
L 372.227046 -265.358139 
L 371.02782 -264.498626 
L 369.828595 -263.639114 
L 368.62937 -262.779601 
L 367.430144 -261.920089 
L 366.230919 -261.060577 
L 365.031694 -260.201064 
L 363.832468 -259.341552 
L 362.633243 -258.482039 
L 361.434018 -257.622527 
L 360.234792 -256.763014 
L 359.035567 -255.903502 
L 357.836342 -255.04399 
L 356.637116 -254.184477 
L 355.437891 -253.324965 
L 354.238666 -252.465452 
L 353.03944 -251.60594 
L 351.840215 -250.746428 
L 350.64099 -249.886915 
L 349.441764 -249.027403 
L 348.242539 -248.16789 
L 347.043314 -247.308378 
L 345.844088 -246.448865 
L 344.644863 -245.589353 
L 343.445638 -244.729841 
L 342.246412 -243.870328 
L 341.047187 -243.010816 
L 339.847962 -242.151303 
L 338.648736 -241.291791 
L 337.449511 -240.432279 
L 336.250286 -239.572766 
L 335.05106 -238.713254 
L 333.851835 -237.853741 
L 332.65261 -236.994229 
L 331.453384 -236.134716 
L 330.254159 -235.275204 
L 329.054934 -234.415692 
L 327.855708 -233.556179 
L 326.656483 -232.696667 
L 325.457258 -231.837154 
L 324.258032 -230.977642 
L 323.058807 -230.11813 
L 321.859582 -229.258617 
L 320.660356 -228.399105 
L 319.461131 -227.539592 
L 318.261906 -226.68008 
L 317.06268 -225.820567 
L 315.863455 -224.961055 
L 314.66423 -224.101543 
L 313.465004 -223.24203 
L 312.265779 -222.382518 
L 311.066554 -221.523005 
L 309.867328 -220.663493 
L 308.668103 -219.803981 
L 307.468878 -218.944468 
L 306.269652 -218.084956 
L 305.070427 -217.225443 
L 303.871202 -216.365931 
L 302.671976 -215.506418 
L 301.472751 -214.646906 
L 300.273526 -213.787394 
L 299.0743 -212.927881 
L 297.875075 -212.068369 
L 296.675849 -211.208856 
L 295.476624 -210.349344 
L 294.277399 -209.489832 
L 293.078173 -208.630319 
L 291.878948 -207.770807 
L 290.679723 -206.911294 
L 289.480497 -206.051782 
L 288.281272 -205.192269 
L 287.082047 -204.332757 
L 285.882821 -203.473245 
L 284.683596 -202.613732 
L 283.484371 -201.75422 
L 282.285145 -200.894707 
L 281.08592 -200.035195 
L 279.886695 -199.175683 
L 278.687469 -198.31617 
L 277.488244 -197.456658 
L 276.289019 -196.597145 
L 275.089793 -195.737633 
L 273.890568 -194.87812 
L 272.691343 -194.018608 
L 271.492117 -193.159096 
L 270.292892 -192.299583 
L 269.093667 -191.440071 
L 267.894441 -190.580558 
L 266.695216 -189.721046 
L 265.495991 -188.861534 
L 264.296765 -188.002021 
L 263.09754 -187.142509 
L 261.898315 -186.282996 
L 260.699089 -185.423484 
L 259.499864 -184.563971 
L 258.300639 -183.704459 
L 257.101413 -182.844947 
L 255.902188 -181.985434 
L 254.702963 -181.125922 
L 253.503737 -180.266409 
L 252.304512 -179.406897 
L 251.105287 -178.547385 
L 249.906061 -177.687872 
L 248.706836 -177.031491 
L 247.507611 -177.469488 
L 246.308385 -177.907485 
L 245.10916 -178.345482 
L 243.909935 -178.783479 
L 242.710709 -179.221476 
L 241.511484 -179.659474 
L 240.312259 -180.097471 
L 239.113033 -180.535468 
L 237.913808 -180.973465 
L 236.714583 -181.411462 
L 235.515357 -181.849459 
L 234.316132 -182.287456 
L 233.116907 -182.725453 
L 231.917681 -183.163451 
L 230.718456 -183.601448 
L 229.519231 -184.039445 
L 228.320005 -184.477442 
L 227.12078 -184.915439 
L 225.921555 -185.353436 
L 224.722329 -185.791433 
L 223.523104 -186.22943 
L 222.323879 -186.667427 
L 221.124653 -187.105425 
L 219.925428 -187.543422 
L 218.726203 -187.981419 
L 217.526977 -188.419416 
L 216.327752 -188.857413 
L 215.128527 -189.29541 
L 213.929301 -189.733407 
L 212.730076 -190.171404 
L 211.530851 -190.609402 
L 210.331625 -191.047399 
L 209.1324 -191.485396 
L 207.933175 -191.923393 
L 206.733949 -192.36139 
L 205.534724 -192.799387 
L 204.335499 -193.237384 
L 203.136273 -193.675381 
L 201.937048 -194.113378 
L 200.737823 -194.551376 
L 199.538597 -194.989373 
L 198.339372 -195.42737 
L 197.140147 -195.865367 
L 195.940921 -196.303364 
L 194.741696 -196.741361 
L 193.542471 -197.179358 
L 192.343245 -197.617355 
L 191.14402 -198.055353 
L 189.944795 -198.49335 
L 188.745569 -198.931347 
L 187.546344 -199.369344 
L 186.347119 -199.807341 
L 185.147893 -200.245338 
L 183.948668 -200.683335 
L 182.749443 -201.121332 
L 181.550217 -201.559329 
L 180.350992 -201.997327 
L 179.151767 -202.435324 
L 177.952541 -202.873321 
L 176.753316 -203.311318 
L 175.554091 -203.749315 
L 174.354865 -204.187312 
L 173.15564 -204.625309 
L 171.956415 -205.063306 
L 170.757189 -205.501304 
L 169.557964 -205.939301 
L 168.358739 -206.377298 
L 167.159513 -206.815295 
L 165.960288 -207.253292 
L 164.761063 -207.691289 
L 163.561837 -208.129286 
L 162.362612 -208.567283 
L 161.163387 -209.005281 
L 159.964161 -209.443278 
L 158.764936 -209.881275 
L 157.565711 -210.319272 
L 156.366485 -210.757269 
L 155.16726 -211.195266 
L 153.968035 -211.633263 
L 152.768809 -212.07126 
L 151.569584 -212.509257 
z
" style="stroke: #808080; stroke-opacity: 0.3"/>
    </defs>
    <g clip-path="url(#p51557638ba)">
     <use xlink:href="#m05fd730f6d" x="0" y="423.43625" style="fill: #808080; fill-opacity: 0.3; stroke: #808080; stroke-opacity: 0.3"/>
    </g>
   </g>
   <g id="line2d_1">
    <path d="M 59.229233 177.201214 
L 537.720142 351.962065 
L 537.720142 351.962065 
" clip-path="url(#p51557638ba)" style="fill: none; stroke-dasharray: 5.55,2.4; stroke-dashoffset: 0; stroke: #ff0000; stroke-width: 1.5"/>
   </g>
   <g id="line2d_2">
    <path d="M 59.229233 232.628958 
L 537.720142 116.768166 
L 537.720142 116.768166 
" clip-path="url(#p51557638ba)" style="fill: none; stroke-dasharray: 1.5,2.475; stroke-dashoffset: 0; stroke: #0000ff; stroke-width: 1.5"/>
   </g>
   <g id="line2d_3">
    <path d="M 59.229233 382.410852 
L 537.720142 39.465398 
L 537.720142 39.465398 
" clip-path="url(#p51557638ba)" style="fill: none; stroke-dasharray: 9.6,2.4,1.5,2.4; stroke-dashoffset: 0; stroke: #800080; stroke-width: 1.5"/>
   </g>
   <g id="PathCollection_1">
    <defs>
     <path id="mcbcafa7d98" d="M 0 3.535534 
C 0.937635 3.535534 1.836992 3.163008 2.5 2.5 
C 3.163008 1.836992 3.535534 0.937635 3.535534 0 
C 3.535534 -0.937635 3.163008 -1.836992 2.5 -2.5 
C 1.836992 -3.163008 0.937635 -3.535534 0 -3.535534 
C -0.937635 -3.535534 -1.836992 -3.163008 -2.5 -2.5 
C -3.163008 -1.836992 -3.535534 -0.937635 -3.535534 0 
C -3.535534 0.937635 -3.163008 1.836992 -2.5 2.5 
C -1.836992 3.163008 -0.937635 3.535534 0 3.535534 
z
" style="stroke: #ff0000"/>
    </defs>
    <g clip-path="url(#p51557638ba)">
     <use xlink:href="#mcbcafa7d98" x="150.487651" y="210.531834" style="fill: #ff0000; stroke: #ff0000"/>
     <use xlink:href="#mcbcafa7d98" x="374.835206" y="156.208787" style="fill: #ff0000; stroke: #ff0000"/>
     <use xlink:href="#mcbcafa7d98" x="248.894575" y="246.473331" style="fill: #ff0000; stroke: #ff0000"/>
    </g>
   </g>
   <g id="matplotlib.axis_1">
    <g id="xtick_1">
     <g id="line2d_4">
      <path d="M 59.229233 399.558125 
L 59.229233 22.318125 
" clip-path="url(#p51557638ba)" style="fill: none; stroke-dasharray: 0.8,1.32; stroke-dashoffset: 0; stroke: #808080; stroke-width: 0.8"/>
     </g>
     <g id="line2d_5">
      <defs>
       <path id="m568784bacf" d="M 0 0 
L 0 3.5 
" style="stroke: #000000; stroke-width: 0.8"/>
      </defs>
      <g>
       <use xlink:href="#m568784bacf" x="59.229233" y="399.558125" style="stroke: #000000; stroke-width: 0.8"/>
      </g>
     </g>
     <g id="text_1">
      <!-- 0 -->
      <g transform="translate(56.047983 414.156563)scale(0.1 -0.1)">
       <defs>
        <path id="DejaVuSans-30" d="M 2034 4250 
Q 1547 4250 1301 3770 
Q 1056 3291 1056 2328 
Q 1056 1369 1301 889 
Q 1547 409 2034 409 
Q 2525 409 2770 889 
Q 3016 1369 3016 2328 
Q 3016 3291 2770 3770 
Q 2525 4250 2034 4250 
z
M 2034 4750 
Q 2819 4750 3233 4129 
Q 3647 3509 3647 2328 
Q 3647 1150 3233 529 
Q 2819 -91 2034 -91 
Q 1250 -91 836 529 
Q 422 1150 422 2328 
Q 422 3509 836 4129 
Q 1250 4750 2034 4750 
z
" transform="scale(0.015625)"/>
       </defs>
       <use xlink:href="#DejaVuSans-30"/>
      </g>
     </g>
    </g>
    <g id="xtick_2">
     <g id="line2d_6">
      <path d="M 138.977718 399.558125 
L 138.977718 22.318125 
" clip-path="url(#p51557638ba)" style="fill: none; stroke-dasharray: 0.8,1.32; stroke-dashoffset: 0; stroke: #808080; stroke-width: 0.8"/>
     </g>
     <g id="line2d_7">
      <g>
       <use xlink:href="#m568784bacf" x="138.977718" y="399.558125" style="stroke: #000000; stroke-width: 0.8"/>
      </g>
     </g>
     <g id="text_2">
      <!-- 5 -->
      <g transform="translate(135.796468 414.156563)scale(0.1 -0.1)">
       <defs>
        <path id="DejaVuSans-35" d="M 691 4666 
L 3169 4666 
L 3169 4134 
L 1269 4134 
L 1269 2991 
Q 1406 3038 1543 3061 
Q 1681 3084 1819 3084 
Q 2600 3084 3056 2656 
Q 3513 2228 3513 1497 
Q 3513 744 3044 326 
Q 2575 -91 1722 -91 
Q 1428 -91 1123 -41 
Q 819 9 494 109 
L 494 744 
Q 775 591 1075 516 
Q 1375 441 1709 441 
Q 2250 441 2565 725 
Q 2881 1009 2881 1497 
Q 2881 1984 2565 2268 
Q 2250 2553 1709 2553 
Q 1456 2553 1204 2497 
Q 953 2441 691 2322 
L 691 4666 
z
" transform="scale(0.015625)"/>
       </defs>
       <use xlink:href="#DejaVuSans-35"/>
      </g>
     </g>
    </g>
    <g id="xtick_3">
     <g id="line2d_8">
      <path d="M 218.726203 399.558125 
L 218.726203 22.318125 
" clip-path="url(#p51557638ba)" style="fill: none; stroke-dasharray: 0.8,1.32; stroke-dashoffset: 0; stroke: #808080; stroke-width: 0.8"/>
     </g>
     <g id="line2d_9">
      <g>
       <use xlink:href="#m568784bacf" x="218.726203" y="399.558125" style="stroke: #000000; stroke-width: 0.8"/>
      </g>
     </g>
     <g id="text_3">
      <!-- 10 -->
      <g transform="translate(212.363703 414.156563)scale(0.1 -0.1)">
       <defs>
        <path id="DejaVuSans-31" d="M 794 531 
L 1825 531 
L 1825 4091 
L 703 3866 
L 703 4441 
L 1819 4666 
L 2450 4666 
L 2450 531 
L 3481 531 
L 3481 0 
L 794 0 
L 794 531 
z
" transform="scale(0.015625)"/>
       </defs>
       <use xlink:href="#DejaVuSans-31"/>
       <use xlink:href="#DejaVuSans-30" x="63.623047"/>
      </g>
     </g>
    </g>
    <g id="xtick_4">
     <g id="line2d_10">
      <path d="M 298.474687 399.558125 
L 298.474687 22.318125 
" clip-path="url(#p51557638ba)" style="fill: none; stroke-dasharray: 0.8,1.32; stroke-dashoffset: 0; stroke: #808080; stroke-width: 0.8"/>
     </g>
     <g id="line2d_11">
      <g>
       <use xlink:href="#m568784bacf" x="298.474687" y="399.558125" style="stroke: #000000; stroke-width: 0.8"/>
      </g>
     </g>
     <g id="text_4">
      <!-- 15 -->
      <g transform="translate(292.112187 414.156563)scale(0.1 -0.1)">
       <use xlink:href="#DejaVuSans-31"/>
       <use xlink:href="#DejaVuSans-35" x="63.623047"/>
      </g>
     </g>
    </g>
    <g id="xtick_5">
     <g id="line2d_12">
      <path d="M 378.223172 399.558125 
L 378.223172 22.318125 
" clip-path="url(#p51557638ba)" style="fill: none; stroke-dasharray: 0.8,1.32; stroke-dashoffset: 0; stroke: #808080; stroke-width: 0.8"/>
     </g>
     <g id="line2d_13">
      <g>
       <use xlink:href="#m568784bacf" x="378.223172" y="399.558125" style="stroke: #000000; stroke-width: 0.8"/>
      </g>
     </g>
     <g id="text_5">
      <!-- 20 -->
      <g transform="translate(371.860672 414.156563)scale(0.1 -0.1)">
       <defs>
        <path id="DejaVuSans-32" d="M 1228 531 
L 3431 531 
L 3431 0 
L 469 0 
L 469 531 
Q 828 903 1448 1529 
Q 2069 2156 2228 2338 
Q 2531 2678 2651 2914 
Q 2772 3150 2772 3378 
Q 2772 3750 2511 3984 
Q 2250 4219 1831 4219 
Q 1534 4219 1204 4116 
Q 875 4013 500 3803 
L 500 4441 
Q 881 4594 1212 4672 
Q 1544 4750 1819 4750 
Q 2544 4750 2975 4387 
Q 3406 4025 3406 3419 
Q 3406 3131 3298 2873 
Q 3191 2616 2906 2266 
Q 2828 2175 2409 1742 
Q 1991 1309 1228 531 
z
" transform="scale(0.015625)"/>
       </defs>
       <use xlink:href="#DejaVuSans-32"/>
       <use xlink:href="#DejaVuSans-30" x="63.623047"/>
      </g>
     </g>
    </g>
    <g id="xtick_6">
     <g id="line2d_14">
      <path d="M 457.971657 399.558125 
L 457.971657 22.318125 
" clip-path="url(#p51557638ba)" style="fill: none; stroke-dasharray: 0.8,1.32; stroke-dashoffset: 0; stroke: #808080; stroke-width: 0.8"/>
     </g>
     <g id="line2d_15">
      <g>
       <use xlink:href="#m568784bacf" x="457.971657" y="399.558125" style="stroke: #000000; stroke-width: 0.8"/>
      </g>
     </g>
     <g id="text_6">
      <!-- 25 -->
      <g transform="translate(451.609157 414.156563)scale(0.1 -0.1)">
       <use xlink:href="#DejaVuSans-32"/>
       <use xlink:href="#DejaVuSans-35" x="63.623047"/>
      </g>
     </g>
    </g>
    <g id="xtick_7">
     <g id="line2d_16">
      <path d="M 537.720142 399.558125 
L 537.720142 22.318125 
" clip-path="url(#p51557638ba)" style="fill: none; stroke-dasharray: 0.8,1.32; stroke-dashoffset: 0; stroke: #808080; stroke-width: 0.8"/>
     </g>
     <g id="line2d_17">
      <g>
       <use xlink:href="#m568784bacf" x="537.720142" y="399.558125" style="stroke: #000000; stroke-width: 0.8"/>
      </g>
     </g>
     <g id="text_7">
      <!-- 30 -->
      <g transform="translate(531.357642 414.156563)scale(0.1 -0.1)">
       <defs>
        <path id="DejaVuSans-33" d="M 2597 2516 
Q 3050 2419 3304 2112 
Q 3559 1806 3559 1356 
Q 3559 666 3084 287 
Q 2609 -91 1734 -91 
Q 1441 -91 1130 -33 
Q 819 25 488 141 
L 488 750 
Q 750 597 1062 519 
Q 1375 441 1716 441 
Q 2309 441 2620 675 
Q 2931 909 2931 1356 
Q 2931 1769 2642 2001 
Q 2353 2234 1838 2234 
L 1294 2234 
L 1294 2753 
L 1863 2753 
Q 2328 2753 2575 2939 
Q 2822 3125 2822 3475 
Q 2822 3834 2567 4026 
Q 2313 4219 1838 4219 
Q 1578 4219 1281 4162 
Q 984 4106 628 3988 
L 628 4550 
Q 988 4650 1302 4700 
Q 1616 4750 1894 4750 
Q 2613 4750 3031 4423 
Q 3450 4097 3450 3541 
Q 3450 3153 3228 2886 
Q 3006 2619 2597 2516 
z
" transform="scale(0.015625)"/>
       </defs>
       <use xlink:href="#DejaVuSans-33"/>
       <use xlink:href="#DejaVuSans-30" x="63.623047"/>
      </g>
     </g>
    </g>
   </g>
   <g id="matplotlib.axis_2">
    <g id="ytick_1">
     <g id="line2d_18">
      <path d="M 35.304688 386.352754 
L 561.644687 386.352754 
" clip-path="url(#p51557638ba)" style="fill: none; stroke-dasharray: 0.8,1.32; stroke-dashoffset: 0; stroke: #808080; stroke-width: 0.8"/>
     </g>
     <g id="line2d_19">
      <defs>
       <path id="madce05ad1d" d="M 0 0 
L -3.5 0 
" style="stroke: #000000; stroke-width: 0.8"/>
      </defs>
      <g>
       <use xlink:href="#madce05ad1d" x="35.304688" y="386.352754" style="stroke: #000000; stroke-width: 0.8"/>
      </g>
     </g>
     <g id="text_8">
      <!-- −20 -->
      <g transform="translate(7.2 390.151973)scale(0.1 -0.1)">
       <defs>
        <path id="DejaVuSans-2212" d="M 678 2272 
L 4684 2272 
L 4684 1741 
L 678 1741 
L 678 2272 
z
" transform="scale(0.015625)"/>
       </defs>
       <use xlink:href="#DejaVuSans-2212"/>
       <use xlink:href="#DejaVuSans-32" x="83.789062"/>
       <use xlink:href="#DejaVuSans-30" x="147.412109"/>
      </g>
     </g>
    </g>
    <g id="ytick_2">
     <g id="line2d_20">
      <path d="M 35.304688 328.800988 
L 561.644687 328.800988 
" clip-path="url(#p51557638ba)" style="fill: none; stroke-dasharray: 0.8,1.32; stroke-dashoffset: 0; stroke: #808080; stroke-width: 0.8"/>
     </g>
     <g id="line2d_21">
      <g>
       <use xlink:href="#madce05ad1d" x="35.304688" y="328.800988" style="stroke: #000000; stroke-width: 0.8"/>
      </g>
     </g>
     <g id="text_9">
      <!-- −10 -->
      <g transform="translate(7.2 332.600207)scale(0.1 -0.1)">
       <use xlink:href="#DejaVuSans-2212"/>
       <use xlink:href="#DejaVuSans-31" x="83.789062"/>
       <use xlink:href="#DejaVuSans-30" x="147.412109"/>
      </g>
     </g>
    </g>
    <g id="ytick_3">
     <g id="line2d_22">
      <path d="M 35.304688 271.249222 
L 561.644687 271.249222 
" clip-path="url(#p51557638ba)" style="fill: none; stroke-dasharray: 0.8,1.32; stroke-dashoffset: 0; stroke: #808080; stroke-width: 0.8"/>
     </g>
     <g id="line2d_23">
      <g>
       <use xlink:href="#madce05ad1d" x="35.304688" y="271.249222" style="stroke: #000000; stroke-width: 0.8"/>
      </g>
     </g>
     <g id="text_10">
      <!-- 0 -->
      <g transform="translate(21.942187 275.048441)scale(0.1 -0.1)">
       <use xlink:href="#DejaVuSans-30"/>
      </g>
     </g>
    </g>
    <g id="ytick_4">
     <g id="line2d_24">
      <path d="M 35.304688 213.697456 
L 561.644687 213.697456 
" clip-path="url(#p51557638ba)" style="fill: none; stroke-dasharray: 0.8,1.32; stroke-dashoffset: 0; stroke: #808080; stroke-width: 0.8"/>
     </g>
     <g id="line2d_25">
      <g>
       <use xlink:href="#madce05ad1d" x="35.304688" y="213.697456" style="stroke: #000000; stroke-width: 0.8"/>
      </g>
     </g>
     <g id="text_11">
      <!-- 10 -->
      <g transform="translate(15.579687 217.496675)scale(0.1 -0.1)">
       <use xlink:href="#DejaVuSans-31"/>
       <use xlink:href="#DejaVuSans-30" x="63.623047"/>
      </g>
     </g>
    </g>
    <g id="ytick_5">
     <g id="line2d_26">
      <path d="M 35.304688 156.14569 
L 561.644687 156.14569 
" clip-path="url(#p51557638ba)" style="fill: none; stroke-dasharray: 0.8,1.32; stroke-dashoffset: 0; stroke: #808080; stroke-width: 0.8"/>
     </g>
     <g id="line2d_27">
      <g>
       <use xlink:href="#madce05ad1d" x="35.304688" y="156.14569" style="stroke: #000000; stroke-width: 0.8"/>
      </g>
     </g>
     <g id="text_12">
      <!-- 20 -->
      <g transform="translate(15.579687 159.944909)scale(0.1 -0.1)">
       <use xlink:href="#DejaVuSans-32"/>
       <use xlink:href="#DejaVuSans-30" x="63.623047"/>
      </g>
     </g>
    </g>
    <g id="ytick_6">
     <g id="line2d_28">
      <path d="M 35.304688 98.593924 
L 561.644687 98.593924 
" clip-path="url(#p51557638ba)" style="fill: none; stroke-dasharray: 0.8,1.32; stroke-dashoffset: 0; stroke: #808080; stroke-width: 0.8"/>
     </g>
     <g id="line2d_29">
      <g>
       <use xlink:href="#madce05ad1d" x="35.304688" y="98.593924" style="stroke: #000000; stroke-width: 0.8"/>
      </g>
     </g>
     <g id="text_13">
      <!-- 30 -->
      <g transform="translate(15.579687 102.393143)scale(0.1 -0.1)">
       <use xlink:href="#DejaVuSans-33"/>
       <use xlink:href="#DejaVuSans-30" x="63.623047"/>
      </g>
     </g>
    </g>
    <g id="ytick_7">
     <g id="line2d_30">
      <path d="M 35.304688 41.042158 
L 561.644687 41.042158 
" clip-path="url(#p51557638ba)" style="fill: none; stroke-dasharray: 0.8,1.32; stroke-dashoffset: 0; stroke: #808080; stroke-width: 0.8"/>
     </g>
     <g id="line2d_31">
      <g>
       <use xlink:href="#madce05ad1d" x="35.304688" y="41.042158" style="stroke: #000000; stroke-width: 0.8"/>
      </g>
     </g>
     <g id="text_14">
      <!-- 40 -->
      <g transform="translate(15.579687 44.841377)scale(0.1 -0.1)">
       <defs>
        <path id="DejaVuSans-34" d="M 2419 4116 
L 825 1625 
L 2419 1625 
L 2419 4116 
z
M 2253 4666 
L 3047 4666 
L 3047 1625 
L 3713 1625 
L 3713 1100 
L 3047 1100 
L 3047 0 
L 2419 0 
L 2419 1100 
L 313 1100 
L 313 1709 
L 2253 4666 
z
" transform="scale(0.015625)"/>
       </defs>
       <use xlink:href="#DejaVuSans-34"/>
       <use xlink:href="#DejaVuSans-30" x="63.623047"/>
      </g>
     </g>
    </g>
   </g>
   <g id="patch_3">
    <path d="M 35.304688 399.558125 
L 35.304688 22.318125 
" style="fill: none; stroke: #000000; stroke-width: 0.8; stroke-linejoin: miter; stroke-linecap: square"/>
   </g>
   <g id="patch_4">
    <path d="M 561.644687 399.558125 
L 561.644687 22.318125 
" style="fill: none; stroke: #000000; stroke-width: 0.8; stroke-linejoin: miter; stroke-linecap: square"/>
   </g>
   <g id="patch_5">
    <path d="M 35.304688 399.558125 
L 561.644687 399.558125 
" style="fill: none; stroke: #000000; stroke-width: 0.8; stroke-linejoin: miter; stroke-linecap: square"/>
   </g>
   <g id="patch_6">
    <path d="M 35.304688 22.318125 
L 561.644687 22.318125 
" style="fill: none; stroke: #000000; stroke-width: 0.8; stroke-linejoin: miter; stroke-linecap: square"/>
   </g>
   <g id="text_15">
    <!-- $8.3x_1 + 8.2x_2 = 134$ -->
    <g transform="translate(413.504286 301.502643)rotate(20.063881)scale(0.1 -0.1)">
     <defs>
      <path id="DejaVuSans-38" d="M 2034 2216 
Q 1584 2216 1326 1975 
Q 1069 1734 1069 1313 
Q 1069 891 1326 650 
Q 1584 409 2034 409 
Q 2484 409 2743 651 
Q 3003 894 3003 1313 
Q 3003 1734 2745 1975 
Q 2488 2216 2034 2216 
z
M 1403 2484 
Q 997 2584 770 2862 
Q 544 3141 544 3541 
Q 544 4100 942 4425 
Q 1341 4750 2034 4750 
Q 2731 4750 3128 4425 
Q 3525 4100 3525 3541 
Q 3525 3141 3298 2862 
Q 3072 2584 2669 2484 
Q 3125 2378 3379 2068 
Q 3634 1759 3634 1313 
Q 3634 634 3220 271 
Q 2806 -91 2034 -91 
Q 1263 -91 848 271 
Q 434 634 434 1313 
Q 434 1759 690 2068 
Q 947 2378 1403 2484 
z
M 1172 3481 
Q 1172 3119 1398 2916 
Q 1625 2713 2034 2713 
Q 2441 2713 2670 2916 
Q 2900 3119 2900 3481 
Q 2900 3844 2670 4047 
Q 2441 4250 2034 4250 
Q 1625 4250 1398 4047 
Q 1172 3844 1172 3481 
z
" transform="scale(0.015625)"/>
      <path id="DejaVuSans-2e" d="M 684 794 
L 1344 794 
L 1344 0 
L 684 0 
L 684 794 
z
" transform="scale(0.015625)"/>
      <path id="DejaVuSans-Oblique-78" d="M 3841 3500 
L 2234 1784 
L 3219 0 
L 2559 0 
L 1819 1388 
L 531 0 
L -166 0 
L 1556 1844 
L 641 3500 
L 1300 3500 
L 1972 2234 
L 3144 3500 
L 3841 3500 
z
" transform="scale(0.015625)"/>
      <path id="DejaVuSans-2b" d="M 2944 4013 
L 2944 2272 
L 4684 2272 
L 4684 1741 
L 2944 1741 
L 2944 0 
L 2419 0 
L 2419 1741 
L 678 1741 
L 678 2272 
L 2419 2272 
L 2419 4013 
L 2944 4013 
z
" transform="scale(0.015625)"/>
      <path id="DejaVuSans-3d" d="M 678 2906 
L 4684 2906 
L 4684 2381 
L 678 2381 
L 678 2906 
z
M 678 1631 
L 4684 1631 
L 4684 1100 
L 678 1100 
L 678 1631 
z
" transform="scale(0.015625)"/>
     </defs>
     <use xlink:href="#DejaVuSans-38" transform="translate(0 0.78125)"/>
     <use xlink:href="#DejaVuSans-2e" transform="translate(63.623047 0.78125)"/>
     <use xlink:href="#DejaVuSans-33" transform="translate(95.410156 0.78125)"/>
     <use xlink:href="#DejaVuSans-Oblique-78" transform="translate(159.033203 0.78125)"/>
     <use xlink:href="#DejaVuSans-31" transform="translate(218.212891 -15.625)scale(0.7)"/>
     <use xlink:href="#DejaVuSans-2b" transform="translate(284.96582 0.78125)"/>
     <use xlink:href="#DejaVuSans-38" transform="translate(388.237305 0.78125)"/>
     <use xlink:href="#DejaVuSans-2e" transform="translate(451.860352 0.78125)"/>
     <use xlink:href="#DejaVuSans-32" transform="translate(478.147461 0.78125)"/>
     <use xlink:href="#DejaVuSans-Oblique-78" transform="translate(541.770508 0.78125)"/>
     <use xlink:href="#DejaVuSans-32" transform="translate(600.950195 -15.625)scale(0.7)"/>
     <use xlink:href="#DejaVuSans-3d" transform="translate(667.703125 0.78125)"/>
     <use xlink:href="#DejaVuSans-31" transform="translate(770.974609 0.78125)"/>
     <use xlink:href="#DejaVuSans-33" transform="translate(834.597656 0.78125)"/>
     <use xlink:href="#DejaVuSans-34" transform="translate(898.220703 0.78125)"/>
    </g>
   </g>
   <g id="text_16">
    <!-- $-10.2x_1 + 15.2x_2 = 102$ -->
    <g transform="translate(209.326101 191.267441)rotate(-13.611499)scale(0.1 -0.1)">
     <use xlink:href="#DejaVuSans-2212" transform="translate(0 0.78125)"/>
     <use xlink:href="#DejaVuSans-31" transform="translate(83.789062 0.78125)"/>
     <use xlink:href="#DejaVuSans-30" transform="translate(147.412109 0.78125)"/>
     <use xlink:href="#DejaVuSans-2e" transform="translate(211.035156 0.78125)"/>
     <use xlink:href="#DejaVuSans-32" transform="translate(237.322266 0.78125)"/>
     <use xlink:href="#DejaVuSans-Oblique-78" transform="translate(300.945312 0.78125)"/>
     <use xlink:href="#DejaVuSans-31" transform="translate(360.125 -15.625)scale(0.7)"/>
     <use xlink:href="#DejaVuSans-2b" transform="translate(426.87793 0.78125)"/>
     <use xlink:href="#DejaVuSans-31" transform="translate(530.149414 0.78125)"/>
     <use xlink:href="#DejaVuSans-35" transform="translate(593.772461 0.78125)"/>
     <use xlink:href="#DejaVuSans-2e" transform="translate(657.395508 0.78125)"/>
     <use xlink:href="#DejaVuSans-32" transform="translate(683.682617 0.78125)"/>
     <use xlink:href="#DejaVuSans-Oblique-78" transform="translate(747.305664 0.78125)"/>
     <use xlink:href="#DejaVuSans-32" transform="translate(806.485352 -15.625)scale(0.7)"/>
     <use xlink:href="#DejaVuSans-3d" transform="translate(873.238281 0.78125)"/>
     <use xlink:href="#DejaVuSans-31" transform="translate(976.509766 0.78125)"/>
     <use xlink:href="#DejaVuSans-30" transform="translate(1040.132812 0.78125)"/>
     <use xlink:href="#DejaVuSans-32" transform="translate(1103.755859 0.78125)"/>
    </g>
   </g>
   <g id="text_17">
    <!-- $14.5x_1 - 7.3x_2 = 141$ -->
    <g transform="translate(95.866593 350.715739)rotate(-35.630041)scale(0.1 -0.1)">
     <defs>
      <path id="DejaVuSans-37" d="M 525 4666 
L 3525 4666 
L 3525 4397 
L 1831 0 
L 1172 0 
L 2766 4134 
L 525 4134 
L 525 4666 
z
" transform="scale(0.015625)"/>
     </defs>
     <use xlink:href="#DejaVuSans-31" transform="translate(0 0.78125)"/>
     <use xlink:href="#DejaVuSans-34" transform="translate(63.623047 0.78125)"/>
     <use xlink:href="#DejaVuSans-2e" transform="translate(127.246094 0.78125)"/>
     <use xlink:href="#DejaVuSans-35" transform="translate(159.033203 0.78125)"/>
     <use xlink:href="#DejaVuSans-Oblique-78" transform="translate(222.65625 0.78125)"/>
     <use xlink:href="#DejaVuSans-31" transform="translate(281.835938 -15.625)scale(0.7)"/>
     <use xlink:href="#DejaVuSans-2212" transform="translate(348.588867 0.78125)"/>
     <use xlink:href="#DejaVuSans-37" transform="translate(451.860352 0.78125)"/>
     <use xlink:href="#DejaVuSans-2e" transform="translate(515.483398 0.78125)"/>
     <use xlink:href="#DejaVuSans-33" transform="translate(547.270508 0.78125)"/>
     <use xlink:href="#DejaVuSans-Oblique-78" transform="translate(610.893555 0.78125)"/>
     <use xlink:href="#DejaVuSans-32" transform="translate(670.073242 -15.625)scale(0.7)"/>
     <use xlink:href="#DejaVuSans-3d" transform="translate(736.826172 0.78125)"/>
     <use xlink:href="#DejaVuSans-31" transform="translate(840.097656 0.78125)"/>
     <use xlink:href="#DejaVuSans-34" transform="translate(903.720703 0.78125)"/>
     <use xlink:href="#DejaVuSans-31" transform="translate(967.34375 0.78125)"/>
    </g>
   </g>
   <g id="patch_7">
    <path d="M 139.8488 136.19717 
Q 143.47528 172.947151 146.991966 208.584501 
" style="fill: none; stroke: #000000; stroke-linecap: round"/>
    <path d="M 148.589487 204.407429 
L 146.991966 208.584501 
L 144.608822 204.800241 
" style="fill: none; stroke: #000000; stroke-linecap: round"/>
   </g>
   <g id="text_18">
    <!-- The intersection point of  f1 and f2 -->
    <g transform="translate(52.036312 130.129182)scale(0.1 -0.1)">
     <defs>
      <path id="DejaVuSans-54" d="M -19 4666 
L 3928 4666 
L 3928 4134 
L 2272 4134 
L 2272 0 
L 1638 0 
L 1638 4134 
L -19 4134 
L -19 4666 
z
" transform="scale(0.015625)"/>
      <path id="DejaVuSans-68" d="M 3513 2113 
L 3513 0 
L 2938 0 
L 2938 2094 
Q 2938 2591 2744 2837 
Q 2550 3084 2163 3084 
Q 1697 3084 1428 2787 
Q 1159 2491 1159 1978 
L 1159 0 
L 581 0 
L 581 4863 
L 1159 4863 
L 1159 2956 
Q 1366 3272 1645 3428 
Q 1925 3584 2291 3584 
Q 2894 3584 3203 3211 
Q 3513 2838 3513 2113 
z
" transform="scale(0.015625)"/>
      <path id="DejaVuSans-65" d="M 3597 1894 
L 3597 1613 
L 953 1613 
Q 991 1019 1311 708 
Q 1631 397 2203 397 
Q 2534 397 2845 478 
Q 3156 559 3463 722 
L 3463 178 
Q 3153 47 2828 -22 
Q 2503 -91 2169 -91 
Q 1331 -91 842 396 
Q 353 884 353 1716 
Q 353 2575 817 3079 
Q 1281 3584 2069 3584 
Q 2775 3584 3186 3129 
Q 3597 2675 3597 1894 
z
M 3022 2063 
Q 3016 2534 2758 2815 
Q 2500 3097 2075 3097 
Q 1594 3097 1305 2825 
Q 1016 2553 972 2059 
L 3022 2063 
z
" transform="scale(0.015625)"/>
      <path id="DejaVuSans-20" transform="scale(0.015625)"/>
      <path id="DejaVuSans-69" d="M 603 3500 
L 1178 3500 
L 1178 0 
L 603 0 
L 603 3500 
z
M 603 4863 
L 1178 4863 
L 1178 4134 
L 603 4134 
L 603 4863 
z
" transform="scale(0.015625)"/>
      <path id="DejaVuSans-6e" d="M 3513 2113 
L 3513 0 
L 2938 0 
L 2938 2094 
Q 2938 2591 2744 2837 
Q 2550 3084 2163 3084 
Q 1697 3084 1428 2787 
Q 1159 2491 1159 1978 
L 1159 0 
L 581 0 
L 581 3500 
L 1159 3500 
L 1159 2956 
Q 1366 3272 1645 3428 
Q 1925 3584 2291 3584 
Q 2894 3584 3203 3211 
Q 3513 2838 3513 2113 
z
" transform="scale(0.015625)"/>
      <path id="DejaVuSans-74" d="M 1172 4494 
L 1172 3500 
L 2356 3500 
L 2356 3053 
L 1172 3053 
L 1172 1153 
Q 1172 725 1289 603 
Q 1406 481 1766 481 
L 2356 481 
L 2356 0 
L 1766 0 
Q 1100 0 847 248 
Q 594 497 594 1153 
L 594 3053 
L 172 3053 
L 172 3500 
L 594 3500 
L 594 4494 
L 1172 4494 
z
" transform="scale(0.015625)"/>
      <path id="DejaVuSans-72" d="M 2631 2963 
Q 2534 3019 2420 3045 
Q 2306 3072 2169 3072 
Q 1681 3072 1420 2755 
Q 1159 2438 1159 1844 
L 1159 0 
L 581 0 
L 581 3500 
L 1159 3500 
L 1159 2956 
Q 1341 3275 1631 3429 
Q 1922 3584 2338 3584 
Q 2397 3584 2469 3576 
Q 2541 3569 2628 3553 
L 2631 2963 
z
" transform="scale(0.015625)"/>
      <path id="DejaVuSans-73" d="M 2834 3397 
L 2834 2853 
Q 2591 2978 2328 3040 
Q 2066 3103 1784 3103 
Q 1356 3103 1142 2972 
Q 928 2841 928 2578 
Q 928 2378 1081 2264 
Q 1234 2150 1697 2047 
L 1894 2003 
Q 2506 1872 2764 1633 
Q 3022 1394 3022 966 
Q 3022 478 2636 193 
Q 2250 -91 1575 -91 
Q 1294 -91 989 -36 
Q 684 19 347 128 
L 347 722 
Q 666 556 975 473 
Q 1284 391 1588 391 
Q 1994 391 2212 530 
Q 2431 669 2431 922 
Q 2431 1156 2273 1281 
Q 2116 1406 1581 1522 
L 1381 1569 
Q 847 1681 609 1914 
Q 372 2147 372 2553 
Q 372 3047 722 3315 
Q 1072 3584 1716 3584 
Q 2034 3584 2315 3537 
Q 2597 3491 2834 3397 
z
" transform="scale(0.015625)"/>
      <path id="DejaVuSans-63" d="M 3122 3366 
L 3122 2828 
Q 2878 2963 2633 3030 
Q 2388 3097 2138 3097 
Q 1578 3097 1268 2742 
Q 959 2388 959 1747 
Q 959 1106 1268 751 
Q 1578 397 2138 397 
Q 2388 397 2633 464 
Q 2878 531 3122 666 
L 3122 134 
Q 2881 22 2623 -34 
Q 2366 -91 2075 -91 
Q 1284 -91 818 406 
Q 353 903 353 1747 
Q 353 2603 823 3093 
Q 1294 3584 2113 3584 
Q 2378 3584 2631 3529 
Q 2884 3475 3122 3366 
z
" transform="scale(0.015625)"/>
      <path id="DejaVuSans-6f" d="M 1959 3097 
Q 1497 3097 1228 2736 
Q 959 2375 959 1747 
Q 959 1119 1226 758 
Q 1494 397 1959 397 
Q 2419 397 2687 759 
Q 2956 1122 2956 1747 
Q 2956 2369 2687 2733 
Q 2419 3097 1959 3097 
z
M 1959 3584 
Q 2709 3584 3137 3096 
Q 3566 2609 3566 1747 
Q 3566 888 3137 398 
Q 2709 -91 1959 -91 
Q 1206 -91 779 398 
Q 353 888 353 1747 
Q 353 2609 779 3096 
Q 1206 3584 1959 3584 
z
" transform="scale(0.015625)"/>
      <path id="DejaVuSans-70" d="M 1159 525 
L 1159 -1331 
L 581 -1331 
L 581 3500 
L 1159 3500 
L 1159 2969 
Q 1341 3281 1617 3432 
Q 1894 3584 2278 3584 
Q 2916 3584 3314 3078 
Q 3713 2572 3713 1747 
Q 3713 922 3314 415 
Q 2916 -91 2278 -91 
Q 1894 -91 1617 61 
Q 1341 213 1159 525 
z
M 3116 1747 
Q 3116 2381 2855 2742 
Q 2594 3103 2138 3103 
Q 1681 3103 1420 2742 
Q 1159 2381 1159 1747 
Q 1159 1113 1420 752 
Q 1681 391 2138 391 
Q 2594 391 2855 752 
Q 3116 1113 3116 1747 
z
" transform="scale(0.015625)"/>
      <path id="DejaVuSans-66" d="M 2375 4863 
L 2375 4384 
L 1825 4384 
Q 1516 4384 1395 4259 
Q 1275 4134 1275 3809 
L 1275 3500 
L 2222 3500 
L 2222 3053 
L 1275 3053 
L 1275 0 
L 697 0 
L 697 3053 
L 147 3053 
L 147 3500 
L 697 3500 
L 697 3744 
Q 697 4328 969 4595 
Q 1241 4863 1831 4863 
L 2375 4863 
z
" transform="scale(0.015625)"/>
      <path id="DejaVuSans-61" d="M 2194 1759 
Q 1497 1759 1228 1600 
Q 959 1441 959 1056 
Q 959 750 1161 570 
Q 1363 391 1709 391 
Q 2188 391 2477 730 
Q 2766 1069 2766 1631 
L 2766 1759 
L 2194 1759 
z
M 3341 1997 
L 3341 0 
L 2766 0 
L 2766 531 
Q 2569 213 2275 61 
Q 1981 -91 1556 -91 
Q 1019 -91 701 211 
Q 384 513 384 1019 
Q 384 1609 779 1909 
Q 1175 2209 1959 2209 
L 2766 2209 
L 2766 2266 
Q 2766 2663 2505 2880 
Q 2244 3097 1772 3097 
Q 1472 3097 1187 3025 
Q 903 2953 641 2809 
L 641 3341 
Q 956 3463 1253 3523 
Q 1550 3584 1831 3584 
Q 2591 3584 2966 3190 
Q 3341 2797 3341 1997 
z
" transform="scale(0.015625)"/>
      <path id="DejaVuSans-64" d="M 2906 2969 
L 2906 4863 
L 3481 4863 
L 3481 0 
L 2906 0 
L 2906 525 
Q 2725 213 2448 61 
Q 2172 -91 1784 -91 
Q 1150 -91 751 415 
Q 353 922 353 1747 
Q 353 2572 751 3078 
Q 1150 3584 1784 3584 
Q 2172 3584 2448 3432 
Q 2725 3281 2906 2969 
z
M 947 1747 
Q 947 1113 1208 752 
Q 1469 391 1925 391 
Q 2381 391 2643 752 
Q 2906 1113 2906 1747 
Q 2906 2381 2643 2742 
Q 2381 3103 1925 3103 
Q 1469 3103 1208 2742 
Q 947 2381 947 1747 
z
" transform="scale(0.015625)"/>
     </defs>
     <use xlink:href="#DejaVuSans-54"/>
     <use xlink:href="#DejaVuSans-68" x="61.083984"/>
     <use xlink:href="#DejaVuSans-65" x="124.462891"/>
     <use xlink:href="#DejaVuSans-20" x="185.986328"/>
     <use xlink:href="#DejaVuSans-69" x="217.773438"/>
     <use xlink:href="#DejaVuSans-6e" x="245.556641"/>
     <use xlink:href="#DejaVuSans-74" x="308.935547"/>
     <use xlink:href="#DejaVuSans-65" x="348.144531"/>
     <use xlink:href="#DejaVuSans-72" x="409.667969"/>
     <use xlink:href="#DejaVuSans-73" x="450.78125"/>
     <use xlink:href="#DejaVuSans-65" x="502.880859"/>
     <use xlink:href="#DejaVuSans-63" x="564.404297"/>
     <use xlink:href="#DejaVuSans-74" x="619.384766"/>
     <use xlink:href="#DejaVuSans-69" x="658.59375"/>
     <use xlink:href="#DejaVuSans-6f" x="686.376953"/>
     <use xlink:href="#DejaVuSans-6e" x="747.558594"/>
     <use xlink:href="#DejaVuSans-20" x="810.9375"/>
     <use xlink:href="#DejaVuSans-70" x="842.724609"/>
     <use xlink:href="#DejaVuSans-6f" x="906.201172"/>
     <use xlink:href="#DejaVuSans-69" x="967.382812"/>
     <use xlink:href="#DejaVuSans-6e" x="995.166016"/>
     <use xlink:href="#DejaVuSans-74" x="1058.544922"/>
     <use xlink:href="#DejaVuSans-20" x="1097.753906"/>
     <use xlink:href="#DejaVuSans-6f" x="1129.541016"/>
     <use xlink:href="#DejaVuSans-66" x="1190.722656"/>
     <use xlink:href="#DejaVuSans-20" x="1225.927734"/>
     <use xlink:href="#DejaVuSans-20" x="1257.714844"/>
     <use xlink:href="#DejaVuSans-66" x="1289.501953"/>
     <use xlink:href="#DejaVuSans-31" x="1324.707031"/>
     <use xlink:href="#DejaVuSans-20" x="1388.330078"/>
     <use xlink:href="#DejaVuSans-61" x="1420.117188"/>
     <use xlink:href="#DejaVuSans-6e" x="1481.396484"/>
     <use xlink:href="#DejaVuSans-64" x="1544.775391"/>
     <use xlink:href="#DejaVuSans-20" x="1608.251953"/>
     <use xlink:href="#DejaVuSans-66" x="1640.039062"/>
     <use xlink:href="#DejaVuSans-32" x="1675.244141"/>
    </g>
   </g>
   <g id="patch_8">
    <path d="M 363.684761 78.631168 
Q 369.899162 117.43855 375.93678 155.141962 
" style="fill: none; stroke: #000000; stroke-linecap: round"/>
    <path d="M 377.27914 150.876042 
L 375.93678 155.141962 
L 373.32946 151.508522 
" style="fill: none; stroke: #000000; stroke-linecap: round"/>
   </g>
   <g id="text_19">
    <!-- The intersection point of  f2 and f3 -->
    <g transform="translate(275.332069 72.577416)scale(0.1 -0.1)">
     <use xlink:href="#DejaVuSans-54"/>
     <use xlink:href="#DejaVuSans-68" x="61.083984"/>
     <use xlink:href="#DejaVuSans-65" x="124.462891"/>
     <use xlink:href="#DejaVuSans-20" x="185.986328"/>
     <use xlink:href="#DejaVuSans-69" x="217.773438"/>
     <use xlink:href="#DejaVuSans-6e" x="245.556641"/>
     <use xlink:href="#DejaVuSans-74" x="308.935547"/>
     <use xlink:href="#DejaVuSans-65" x="348.144531"/>
     <use xlink:href="#DejaVuSans-72" x="409.667969"/>
     <use xlink:href="#DejaVuSans-73" x="450.78125"/>
     <use xlink:href="#DejaVuSans-65" x="502.880859"/>
     <use xlink:href="#DejaVuSans-63" x="564.404297"/>
     <use xlink:href="#DejaVuSans-74" x="619.384766"/>
     <use xlink:href="#DejaVuSans-69" x="658.59375"/>
     <use xlink:href="#DejaVuSans-6f" x="686.376953"/>
     <use xlink:href="#DejaVuSans-6e" x="747.558594"/>
     <use xlink:href="#DejaVuSans-20" x="810.9375"/>
     <use xlink:href="#DejaVuSans-70" x="842.724609"/>
     <use xlink:href="#DejaVuSans-6f" x="906.201172"/>
     <use xlink:href="#DejaVuSans-69" x="967.382812"/>
     <use xlink:href="#DejaVuSans-6e" x="995.166016"/>
     <use xlink:href="#DejaVuSans-74" x="1058.544922"/>
     <use xlink:href="#DejaVuSans-20" x="1097.753906"/>
     <use xlink:href="#DejaVuSans-6f" x="1129.541016"/>
     <use xlink:href="#DejaVuSans-66" x="1190.722656"/>
     <use xlink:href="#DejaVuSans-20" x="1225.927734"/>
     <use xlink:href="#DejaVuSans-20" x="1257.714844"/>
     <use xlink:href="#DejaVuSans-66" x="1289.501953"/>
     <use xlink:href="#DejaVuSans-32" x="1324.707031"/>
     <use xlink:href="#DejaVuSans-20" x="1388.330078"/>
     <use xlink:href="#DejaVuSans-61" x="1420.117188"/>
     <use xlink:href="#DejaVuSans-6e" x="1481.396484"/>
     <use xlink:href="#DejaVuSans-64" x="1544.775391"/>
     <use xlink:href="#DejaVuSans-20" x="1608.251953"/>
     <use xlink:href="#DejaVuSans-66" x="1640.039062"/>
     <use xlink:href="#DejaVuSans-33" x="1675.244141"/>
    </g>
   </g>
   <g id="patch_9">
    <path d="M 293.104093 320.269716 
Q 271.132825 285.368019 249.757185 251.412487 
" style="fill: none; stroke: #000000; stroke-linecap: round"/>
    <path d="M 250.195618 255.863079 
L 249.757185 251.412487 
L 253.580719 253.732095 
" style="fill: none; stroke: #000000; stroke-linecap: round"/>
   </g>
   <g id="text_20">
    <!-- The intersection point of  f1 and f3 -->
    <g transform="translate(211.533281 331.560363)scale(0.1 -0.1)">
     <use xlink:href="#DejaVuSans-54"/>
     <use xlink:href="#DejaVuSans-68" x="61.083984"/>
     <use xlink:href="#DejaVuSans-65" x="124.462891"/>
     <use xlink:href="#DejaVuSans-20" x="185.986328"/>
     <use xlink:href="#DejaVuSans-69" x="217.773438"/>
     <use xlink:href="#DejaVuSans-6e" x="245.556641"/>
     <use xlink:href="#DejaVuSans-74" x="308.935547"/>
     <use xlink:href="#DejaVuSans-65" x="348.144531"/>
     <use xlink:href="#DejaVuSans-72" x="409.667969"/>
     <use xlink:href="#DejaVuSans-73" x="450.78125"/>
     <use xlink:href="#DejaVuSans-65" x="502.880859"/>
     <use xlink:href="#DejaVuSans-63" x="564.404297"/>
     <use xlink:href="#DejaVuSans-74" x="619.384766"/>
     <use xlink:href="#DejaVuSans-69" x="658.59375"/>
     <use xlink:href="#DejaVuSans-6f" x="686.376953"/>
     <use xlink:href="#DejaVuSans-6e" x="747.558594"/>
     <use xlink:href="#DejaVuSans-20" x="810.9375"/>
     <use xlink:href="#DejaVuSans-70" x="842.724609"/>
     <use xlink:href="#DejaVuSans-6f" x="906.201172"/>
     <use xlink:href="#DejaVuSans-69" x="967.382812"/>
     <use xlink:href="#DejaVuSans-6e" x="995.166016"/>
     <use xlink:href="#DejaVuSans-74" x="1058.544922"/>
     <use xlink:href="#DejaVuSans-20" x="1097.753906"/>
     <use xlink:href="#DejaVuSans-6f" x="1129.541016"/>
     <use xlink:href="#DejaVuSans-66" x="1190.722656"/>
     <use xlink:href="#DejaVuSans-20" x="1225.927734"/>
     <use xlink:href="#DejaVuSans-20" x="1257.714844"/>
     <use xlink:href="#DejaVuSans-66" x="1289.501953"/>
     <use xlink:href="#DejaVuSans-31" x="1324.707031"/>
     <use xlink:href="#DejaVuSans-20" x="1388.330078"/>
     <use xlink:href="#DejaVuSans-61" x="1420.117188"/>
     <use xlink:href="#DejaVuSans-6e" x="1481.396484"/>
     <use xlink:href="#DejaVuSans-64" x="1544.775391"/>
     <use xlink:href="#DejaVuSans-20" x="1608.251953"/>
     <use xlink:href="#DejaVuSans-66" x="1640.039062"/>
     <use xlink:href="#DejaVuSans-33" x="1675.244141"/>
    </g>
   </g>
   <g id="text_21">
    <!-- Усі прямі на одній фігурі -->
    <g transform="translate(220.806562 16.318125)scale(0.12 -0.12)">
     <defs>
      <path id="DejaVuSans-423" d="M 2047 566 
Q 1981 409 1881 291 
Q 1634 0 850 0 
L 609 0 
L 609 531 
L 806 531 
Q 1178 531 1322 616 
Q 1409 669 1466 800 
L 1606 1131 
L 109 4666 
L 788 4666 
L 1947 1928 
L 3113 4666 
L 3791 4666 
L 2047 566 
z
" transform="scale(0.015625)"/>
      <path id="DejaVuSans-441" d="M 3122 3366 
L 3122 2828 
Q 2878 2963 2633 3030 
Q 2388 3097 2138 3097 
Q 1578 3097 1268 2742 
Q 959 2388 959 1747 
Q 959 1106 1268 751 
Q 1578 397 2138 397 
Q 2388 397 2633 464 
Q 2878 531 3122 666 
L 3122 134 
Q 2881 22 2623 -34 
Q 2366 -91 2075 -91 
Q 1284 -91 818 406 
Q 353 903 353 1747 
Q 353 2603 823 3093 
Q 1294 3584 2113 3584 
Q 2378 3584 2631 3529 
Q 2884 3475 3122 3366 
z
" transform="scale(0.015625)"/>
      <path id="DejaVuSans-456" d="M 603 3500 
L 1178 3500 
L 1178 0 
L 603 0 
L 603 3500 
z
M 603 4863 
L 1178 4863 
L 1178 4134 
L 603 4134 
L 603 4863 
z
" transform="scale(0.015625)"/>
      <path id="DejaVuSans-43f" d="M 3603 3500 
L 3603 0 
L 3025 0 
L 3025 3041 
L 1159 3041 
L 1159 0 
L 581 0 
L 581 3500 
L 3603 3500 
z
" transform="scale(0.015625)"/>
      <path id="DejaVuSans-440" d="M 1159 525 
L 1159 -1331 
L 581 -1331 
L 581 3500 
L 1159 3500 
L 1159 2969 
Q 1341 3281 1617 3432 
Q 1894 3584 2278 3584 
Q 2916 3584 3314 3078 
Q 3713 2572 3713 1747 
Q 3713 922 3314 415 
Q 2916 -91 2278 -91 
Q 1894 -91 1617 61 
Q 1341 213 1159 525 
z
M 3116 1747 
Q 3116 2381 2855 2742 
Q 2594 3103 2138 3103 
Q 1681 3103 1420 2742 
Q 1159 2381 1159 1747 
Q 1159 1113 1420 752 
Q 1681 391 2138 391 
Q 2594 391 2855 752 
Q 3116 1113 3116 1747 
z
" transform="scale(0.015625)"/>
      <path id="DejaVuSans-44f" d="M 1181 2491 
Q 1181 2231 1381 2084 
Q 1581 1938 1953 1938 
L 2728 1938 
L 2728 3041 
L 1953 3041 
Q 1581 3041 1381 2897 
Q 1181 2753 1181 2491 
z
M 363 0 
L 1431 1534 
Q 1069 1616 828 1830 
Q 588 2044 588 2491 
Q 588 2997 923 3248 
Q 1259 3500 1938 3500 
L 3306 3500 
L 3306 0 
L 2728 0 
L 2728 1478 
L 2013 1478 
L 981 0 
L 363 0 
z
" transform="scale(0.015625)"/>
      <path id="DejaVuSans-43c" d="M 581 3500 
L 1422 3500 
L 2416 1156 
L 3413 3500 
L 4247 3500 
L 4247 0 
L 3669 0 
L 3669 2950 
L 2703 672 
L 2128 672 
L 1159 2950 
L 1159 0 
L 581 0 
L 581 3500 
z
" transform="scale(0.015625)"/>
      <path id="DejaVuSans-43d" d="M 581 3500 
L 1159 3500 
L 1159 2072 
L 3025 2072 
L 3025 3500 
L 3603 3500 
L 3603 0 
L 3025 0 
L 3025 1613 
L 1159 1613 
L 1159 0 
L 581 0 
L 581 3500 
z
" transform="scale(0.015625)"/>
      <path id="DejaVuSans-430" d="M 2194 1759 
Q 1497 1759 1228 1600 
Q 959 1441 959 1056 
Q 959 750 1161 570 
Q 1363 391 1709 391 
Q 2188 391 2477 730 
Q 2766 1069 2766 1631 
L 2766 1759 
L 2194 1759 
z
M 3341 1997 
L 3341 0 
L 2766 0 
L 2766 531 
Q 2569 213 2275 61 
Q 1981 -91 1556 -91 
Q 1019 -91 701 211 
Q 384 513 384 1019 
Q 384 1609 779 1909 
Q 1175 2209 1959 2209 
L 2766 2209 
L 2766 2266 
Q 2766 2663 2505 2880 
Q 2244 3097 1772 3097 
Q 1472 3097 1187 3025 
Q 903 2953 641 2809 
L 641 3341 
Q 956 3463 1253 3523 
Q 1550 3584 1831 3584 
Q 2591 3584 2966 3190 
Q 3341 2797 3341 1997 
z
" transform="scale(0.015625)"/>
      <path id="DejaVuSans-43e" d="M 1959 3097 
Q 1497 3097 1228 2736 
Q 959 2375 959 1747 
Q 959 1119 1226 758 
Q 1494 397 1959 397 
Q 2419 397 2687 759 
Q 2956 1122 2956 1747 
Q 2956 2369 2687 2733 
Q 2419 3097 1959 3097 
z
M 1959 3584 
Q 2709 3584 3137 3096 
Q 3566 2609 3566 1747 
Q 3566 888 3137 398 
Q 2709 -91 1959 -91 
Q 1206 -91 779 398 
Q 353 888 353 1747 
Q 353 2609 779 3096 
Q 1206 3584 1959 3584 
z
" transform="scale(0.015625)"/>
      <path id="DejaVuSans-434" d="M 1384 459 
L 3053 459 
L 3053 3041 
L 1844 3041 
L 1844 2603 
Q 1844 1316 1475 628 
L 1384 459 
z
M 550 459 
Q 834 584 959 850 
Q 1266 1509 1266 2838 
L 1266 3500 
L 3631 3500 
L 3631 459 
L 4091 459 
L 4091 -884 
L 3631 -884 
L 3631 0 
L 794 0 
L 794 -884 
L 334 -884 
L 334 459 
L 550 459 
z
" transform="scale(0.015625)"/>
      <path id="DejaVuSans-439" d="M 3578 3500 
L 3578 0 
L 3006 0 
L 3006 2809 
L 1319 0 
L 581 0 
L 581 3500 
L 1153 3500 
L 1153 697 
L 2838 3500 
L 3578 3500 
z
M 1102 4833 
L 1471 4833 
Q 1505 4599 1656 4481 
Q 1808 4364 2080 4364 
Q 2349 4364 2499 4480 
Q 2649 4596 2689 4833 
L 3058 4833 
Q 3027 4386 2780 4161 
Q 2533 3936 2080 3936 
Q 1627 3936 1380 4161 
Q 1133 4386 1102 4833 
z
" transform="scale(0.015625)"/>
      <path id="DejaVuSans-444" d="M 947 1747 
Q 947 1013 1173 702 
Q 1400 391 1784 391 
Q 2091 391 2447 916 
L 2447 2578 
Q 2091 3103 1784 3103 
Q 1400 3103 1173 2792 
Q 947 2481 947 1747 
z
M 2447 -1331 
L 2447 447 
Q 2269 153 2064 31 
Q 1859 -91 1600 -91 
Q 1078 -91 714 392 
Q 350 875 350 1734 
Q 350 2594 714 3089 
Q 1078 3584 1600 3584 
Q 1859 3584 2064 3465 
Q 2269 3347 2447 3053 
L 2447 4666 
L 3025 4666 
L 3025 3053 
Q 3203 3347 3408 3465 
Q 3613 3584 3872 3584 
Q 4394 3584 4758 3089 
Q 5122 2594 5122 1734 
Q 5122 875 4758 392 
Q 4394 -91 3872 -91 
Q 3613 -91 3408 31 
Q 3203 153 3025 447 
L 3025 -1331 
L 2447 -1331 
z
M 4525 1747 
Q 4525 2481 4298 2792 
Q 4072 3103 3688 3103 
Q 3381 3103 3025 2578 
L 3025 916 
Q 3381 391 3688 391 
Q 4072 391 4298 702 
Q 4525 1013 4525 1747 
z
" transform="scale(0.015625)"/>
      <path id="DejaVuSans-433" d="M 581 0 
L 581 3500 
L 3050 3500 
L 3050 3041 
L 1159 3041 
L 1159 0 
L 581 0 
z
" transform="scale(0.015625)"/>
      <path id="DejaVuSans-443" d="M 2059 -325 
Q 1816 -950 1584 -1140 
Q 1353 -1331 966 -1331 
L 506 -1331 
L 506 -850 
L 844 -850 
Q 1081 -850 1212 -737 
Q 1344 -625 1503 -206 
L 1606 56 
L 191 3500 
L 800 3500 
L 1894 763 
L 2988 3500 
L 3597 3500 
L 2059 -325 
z
" transform="scale(0.015625)"/>
     </defs>
     <use xlink:href="#DejaVuSans-423"/>
     <use xlink:href="#DejaVuSans-441" x="60.9375"/>
     <use xlink:href="#DejaVuSans-456" x="115.917969"/>
     <use xlink:href="#DejaVuSans-20" x="143.701172"/>
     <use xlink:href="#DejaVuSans-43f" x="175.488281"/>
     <use xlink:href="#DejaVuSans-440" x="240.869141"/>
     <use xlink:href="#DejaVuSans-44f" x="304.345703"/>
     <use xlink:href="#DejaVuSans-43c" x="364.501953"/>
     <use xlink:href="#DejaVuSans-456" x="439.941406"/>
     <use xlink:href="#DejaVuSans-20" x="467.724609"/>
     <use xlink:href="#DejaVuSans-43d" x="499.511719"/>
     <use xlink:href="#DejaVuSans-430" x="564.892578"/>
     <use xlink:href="#DejaVuSans-20" x="626.171875"/>
     <use xlink:href="#DejaVuSans-43e" x="657.958984"/>
     <use xlink:href="#DejaVuSans-434" x="719.140625"/>
     <use xlink:href="#DejaVuSans-43d" x="788.28125"/>
     <use xlink:href="#DejaVuSans-456" x="853.662109"/>
     <use xlink:href="#DejaVuSans-439" x="881.445312"/>
     <use xlink:href="#DejaVuSans-20" x="946.435547"/>
     <use xlink:href="#DejaVuSans-444" x="978.222656"/>
     <use xlink:href="#DejaVuSans-456" x="1063.720703"/>
     <use xlink:href="#DejaVuSans-433" x="1091.503906"/>
     <use xlink:href="#DejaVuSans-443" x="1144.042969"/>
     <use xlink:href="#DejaVuSans-440" x="1203.222656"/>
     <use xlink:href="#DejaVuSans-456" x="1266.699219"/>
    </g>
   </g>
  </g>
 </g>
 <defs>
  <clipPath id="p51557638ba">
   <rect x="35.304688" y="22.318125" width="526.34" height="377.24"/>
  </clipPath>
 </defs>
</svg>
